<svg xmlns="http://www.w3.org/2000/svg" viewBox="0 0 512 512" fill="none">
  <defs>
    <linearGradient id="iconGradient512" x1="0%" y1="0%" x2="100%" y2="100%">
      <stop offset="0%" style="stop-color:#00FFFF;stop-opacity:1" />
      <stop offset="50%" style="stop-color:#00AAFF;stop-opacity:1" />
      <stop offset="100%" style="stop-color:#0088FF;stop-opacity:1" />
    </linearGradient>
  </defs>

  <!-- Background -->
  <rect width="512" height="512" rx="96" fill="#000000"/>

  <!-- ICM Letters - Centered and Larger -->
  <g fill="url(#iconGradient512)">
    <!-- I -->
    <rect x="96" y="160" width="56" height="28" />
    <rect x="110" y="188" width="28" height="112" />
    <rect x="96" y="300" width="56" height="28" />

    <!-- C -->
    <rect x="180" y="160" width="76" height="28" />
    <rect x="180" y="188" width="28" height="112" />
    <rect x="180" y="300" width="76" height="28" />

    <!-- M -->
    <rect x="288" y="160" width="28" height="168" />
    <rect x="316" y="160" width="28" height="56" />
    <rect x="344" y="160" width="28" height="84" />
    <rect x="372" y="160" width="28" height="56" />
    <rect x="400" y="160" width="28" height="168" />
  </g>

  <!-- Accent Lines -->
  <rect x="96" y="360" width="332" height="8" rx="4" fill="#00FFFF" opacity="0.8"/>
  <rect x="96" y="376" width="260" height="6" rx="3" fill="#00FFFF" opacity="0.5"/>
</svg>
