<svg xmlns="http://www.w3.org/2000/svg" width="21" height="16" viewBox="0 0 21 16" fill="none">
  <path fill-rule="evenodd" clip-rule="evenodd" d="M10.2671 0.89505C10.6635 0.35944 11.2395 0 11.89 0C12.4457 0.0114967 13.1199 0.378038 13.5129 0.89505C13.9093 1.43066 14.1431 2.14717 14.1431 2.93436C14.1431 3.63092 13.9601 4.27 13.6416 4.78059C14.1905 4.91585 14.6309 5.1965 14.9562 5.57521C15.3323 6.00803 15.566 6.5592 15.7185 7.16446C16.0022 8.29712 16.001 9.63634 15.9999 10.8666C15.9998 10.9439 15.9997 11.0207 15.9997 11.097V11.4115H14.5395L14.2616 16H13.6281L13.9195 11.1612L14.0584 8.46629L14.6919 8.50011L14.5733 10.7792H15.3661C15.3661 9.57538 15.3526 8.31075 15.1053 7.31662C14.9697 6.7756 14.7665 6.31912 14.4785 5.98774C14.1939 5.65975 13.8348 5.44334 13.313 5.35881L13.1571 5.36219C12.8048 5.67327 12.3677 5.86939 11.89 5.86939C11.4292 5.86939 11.0023 5.6868 10.6534 5.38924H10.4941C10.3383 5.41967 10.196 5.46363 10.0639 5.52449C10.4399 6.05199 10.6568 6.75193 10.6568 7.51274C10.6568 8.20931 10.4772 8.85177 10.1587 9.36236C10.7042 9.49761 11.1446 9.77827 11.4733 10.1536C11.8494 10.5898 12.0831 11.141 12.2322 11.7428C12.5186 12.8893 12.5177 14.2433 12.5169 15.4801C12.5168 15.5456 12.5168 15.6107 12.5168 15.6754V15.9932C12.1607 15.9913 11.7624 15.9937 11.3562 15.9962C11.0435 15.9981 10.7261 16 10.4196 16L10.4298 15.8208L10.5721 13.0481L11.2056 13.0785L11.087 15.3609H11.8798C11.8798 14.1571 11.8663 12.8925 11.619 11.895C11.4834 11.354 11.2802 10.8975 10.9922 10.5695C10.7076 10.2415 10.3451 10.0217 9.82332 9.94057H9.67423C9.3185 10.255 8.88138 10.4478 8.40372 10.4478C7.94293 10.4478 7.51945 10.2652 7.17046 9.96762L7.00439 9.971C6.06263 10.157 5.56792 10.8705 5.27319 11.939C4.99869 12.9229 4.94112 14.1707 4.93099 15.3609H5.79827L5.68311 13.0785L6.31667 13.0481L6.45559 15.7532L6.47251 16C6.19235 16 5.91402 15.9975 5.63591 15.995C5.19098 15.991 4.74639 15.987 4.29402 15.9932V15.6754C4.29402 14.3803 4.33127 12.9568 4.66333 11.7665C4.97164 10.6574 5.58824 9.70726 6.67577 9.39955C6.34381 8.8822 6.1507 8.22621 6.1507 7.51274C6.1507 7.27267 6.17436 7.03935 6.21502 6.81618C6.02186 6.70798 5.79827 6.6302 5.53396 6.58963H5.37822C5.02237 6.9041 4.58879 7.09683 4.11113 7.09683C3.65034 7.09683 3.22343 6.91424 2.87444 6.61668L2.71549 6.62006C1.76916 6.80265 1.27663 7.51951 0.979105 8.58802C0.704038 9.572 0.645417 10.8197 0.637291 12.01H1.50666L1.38907 9.72755L2.02097 9.69373L2.15989 12.3988L2.40651 16H1.77126L1.54157 12.6423H0V12.3244C0 11.0294 0.036598 9.60582 0.368326 8.41557C0.678296 7.3031 1.29564 6.35631 2.38208 6.04861C2.05083 5.53126 1.85798 4.87527 1.85798 4.1618C1.85798 3.37732 2.09078 2.65945 2.48681 2.12384C2.88459 1.58823 3.46062 1.22778 4.11113 1.22778C4.76163 1.22778 5.33755 1.58823 5.73388 2.12384C6.13033 2.65945 6.3641 3.37732 6.3641 4.1618C6.3641 4.85836 6.18122 5.50082 5.86271 6.01141C6.05243 6.05537 6.22519 6.11962 6.3878 6.20077C6.48952 5.93364 6.62156 5.69018 6.78083 5.47377C7.17722 4.93952 7.75325 4.58109 8.40712 4.58109C8.85771 4.58109 9.2778 4.75354 9.62339 5.04096C9.78942 4.94966 9.96903 4.87189 10.1621 4.81779C9.83013 4.30382 9.63704 3.64783 9.63704 2.93436C9.63704 2.14717 9.87072 1.43066 10.2671 0.89505ZM13.0047 1.27005C12.6998 0.858193 12.3101 0.631979 11.89 0.631979C11.4733 0.631979 11.0803 0.858193 10.7753 1.27005C10.4704 1.68224 10.2705 2.2733 10.2705 2.93436C10.2705 3.59373 10.4704 4.18547 10.7753 4.598C11.0803 5.01052 11.4733 5.23708 11.89 5.23708C12.3101 5.23708 12.6998 5.01052 13.0047 4.598C13.3096 4.18547 13.5095 3.59373 13.5095 2.93436C13.5095 2.2733 13.3096 1.68224 13.0047 1.27005ZM5.22566 2.49884C4.92081 2.08699 4.53116 1.85976 4.11113 1.85976C3.69087 1.85976 3.30134 2.08699 2.99637 2.49918C2.69252 2.91069 2.49115 3.50243 2.49115 4.1618C2.49115 4.82117 2.69252 5.41291 2.99637 5.82544C3.30134 6.23796 3.69087 6.46452 4.11113 6.46452C4.53116 6.46452 4.92081 6.23796 5.22566 5.82544C5.53063 5.41291 5.73053 4.82117 5.73053 4.1618C5.73053 3.50243 5.53063 2.91069 5.22566 2.49884ZM10.8126 3.24545V2.61516H11.5749V3.24545H10.8126ZM12.2051 3.24545V2.61516H12.9674V3.24545H12.2051ZM3.03374 4.47627V3.84395H3.79604V4.47627H3.03374ZM4.42614 4.47627V3.84395H5.18845V4.47627H4.42614ZM9.51837 5.84911C9.21352 5.43658 8.82381 5.21003 8.40712 5.21003C7.98697 5.21003 7.59404 5.43658 7.28896 5.84911C6.98753 6.26163 6.78423 6.85337 6.78423 7.51274C6.78423 8.17549 6.98753 8.76385 7.28896 9.17638C7.59404 9.58891 7.98697 9.81546 8.40712 9.81546C8.82381 9.81546 9.21352 9.58891 9.51837 9.17638C9.82334 8.76385 10.0266 8.17549 10.0266 7.51274C10.0266 6.85337 9.82334 6.26163 9.51837 5.84911ZM7.32972 7.82721V7.19489H8.08862V7.82721H7.32972ZM8.72223 7.82721V7.19489H9.48113V7.82721H8.72223Z" fill="#D1FD0A"/>
</svg>
