<svg xmlns="http://www.w3.org/2000/svg" width="41" height="16" viewBox="0 0 41 16" fill="none">
  <path fill-rule="evenodd" clip-rule="evenodd" d="M35.2671 0.89505C35.6635 0.35944 36.2395 0 36.89 0C37.4457 0.0114967 38.1199 0.378038 38.5129 0.89505C38.9093 1.43066 39.1431 2.14717 39.1431 2.93436C39.1431 3.63092 38.9601 4.27 38.6416 4.78059C39.1905 4.91585 39.6309 5.1965 39.9562 5.57521C40.3323 6.00803 40.566 6.5592 40.7185 7.16446C41.0022 8.29712 41.001 9.63634 40.9999 10.8666C40.9998 10.9439 40.9997 11.0207 40.9997 11.097V11.4115H39.5395L39.2616 16H38.6281L38.9195 11.1612L39.0584 8.46629L39.6919 8.50011L39.5733 10.7792H40.3661C40.3661 9.57538 40.3526 8.31075 40.1053 7.31662C39.9697 6.7756 39.7665 6.31912 39.4785 5.98774C39.1939 5.65975 38.8348 5.44334 38.313 5.35881L38.1571 5.36219C37.8048 5.67327 37.3677 5.86939 36.89 5.86939C36.4292 5.86939 36.0023 5.6868 35.6534 5.38924H35.4941C35.3383 5.41967 35.196 5.46363 35.0639 5.52449C35.4399 6.05199 35.6568 6.75193 35.6568 7.51274C35.6568 8.20931 35.4772 8.85177 35.1587 9.36236C35.7042 9.49761 36.1446 9.77827 36.4733 10.1536C36.8494 10.5898 37.0831 11.141 37.2322 11.7428C37.5186 12.8893 37.5177 14.2433 37.5169 15.4801C37.5168 15.5456 37.5168 15.6107 37.5168 15.6754V15.9932C37.1607 15.9913 36.7624 15.9937 36.3562 15.9962C36.0435 15.9981 35.7261 16 35.4196 16L35.4298 15.8208L35.5721 13.0481L36.2056 13.0785L36.087 15.3609H36.8798C36.8798 14.1571 36.8663 12.8925 36.619 11.895C36.4834 11.354 36.2802 10.8975 35.9922 10.5695C35.7076 10.2415 35.3451 10.0217 34.8233 9.94057H34.6742C34.3185 10.255 33.8814 10.4478 33.4037 10.4478C32.9429 10.4478 32.5194 10.2652 32.1705 9.96762L32.0044 9.971C31.0626 10.157 30.5679 10.8705 30.2732 11.939C29.9987 12.9229 29.9411 14.1707 29.931 15.3609H30.7983L30.6831 13.0785L31.3167 13.0481L31.4556 15.7532L31.4725 16C31.1923 16 30.914 15.9975 30.6359 15.995C30.191 15.991 29.7464 15.987 29.294 15.9932V15.6754C29.294 14.3803 29.3313 12.9568 29.6633 11.7665C29.9716 10.6574 30.5882 9.70726 31.6758 9.39955C31.3438 8.8822 31.1507 8.22621 31.1507 7.51274C31.1507 7.27267 31.1744 7.03935 31.215 6.81618C31.0219 6.70798 30.7983 6.6302 30.534 6.58963H30.3782C30.0224 6.9041 29.5888 7.09683 29.1111 7.09683C28.6503 7.09683 28.2234 6.91424 27.8744 6.61668L27.7155 6.62006C26.7692 6.80265 26.2766 7.51951 25.9791 8.58802C25.704 9.572 25.6454 10.8197 25.6373 12.01H26.5067L26.3891 9.72755L27.021 9.69373L27.1599 12.3988L27.4065 16H26.7713L26.5416 12.6423H25V12.3244C25 11.0294 25.0366 9.60582 25.3683 8.41557C25.6783 7.3031 26.2956 6.35631 27.3821 6.04861C27.0508 5.53126 26.858 4.87527 26.858 4.1618C26.858 3.37732 27.0908 2.65945 27.4868 2.12384C27.8846 1.58823 28.4606 1.22778 29.1111 1.22778C29.7616 1.22778 30.3375 1.58823 30.7339 2.12384C31.1303 2.65945 31.3641 3.37732 31.3641 4.1618C31.3641 4.85836 31.1812 5.50082 30.8627 6.01141C31.0524 6.05537 31.2252 6.11962 31.3878 6.20077C31.4895 5.93364 31.6216 5.69018 31.7808 5.47377C32.1772 4.93952 32.7532 4.58109 33.4071 4.58109C33.8577 4.58109 34.2778 4.75354 34.6234 5.04096C34.7894 4.94966 34.969 4.87189 35.1621 4.81779C34.8301 4.30382 34.637 3.64783 34.637 2.93436C34.637 2.14717 34.8707 1.43066 35.2671 0.89505ZM38.0047 1.27005C37.6998 0.858193 37.3101 0.631979 36.89 0.631979C36.4733 0.631979 36.0803 0.858193 35.7753 1.27005C35.4704 1.68224 35.2705 2.2733 35.2705 2.93436C35.2705 3.59373 35.4704 4.18547 35.7753 4.598C36.0803 5.01052 36.4733 5.23708 36.89 5.23708C37.3101 5.23708 37.6998 5.01052 38.0047 4.598C38.3096 4.18547 38.5095 3.59373 38.5095 2.93436C38.5095 2.2733 38.3096 1.68224 38.0047 1.27005ZM30.2257 2.49884C29.9208 2.08699 29.5312 1.85976 29.1111 1.85976C28.6909 1.85976 28.3013 2.08699 27.9964 2.49918C27.6925 2.91069 27.4912 3.50243 27.4912 4.1618C27.4912 4.82117 27.6925 5.41291 27.9964 5.82544C28.3013 6.23796 28.6909 6.46452 29.1111 6.46452C29.5312 6.46452 29.9208 6.23796 30.2257 5.82544C30.5306 5.41291 30.7305 4.82117 30.7305 4.1618C30.7305 3.50243 30.5306 2.91069 30.2257 2.49884ZM35.8126 3.24545V2.61516H36.5749V3.24545H35.8126ZM37.2051 3.24545V2.61516H37.9674V3.24545H37.2051ZM28.0337 4.47627V3.84395H28.796V4.47627H28.0337ZM29.4261 4.47627V3.84395H30.1885V4.47627H29.4261ZM34.5184 5.84911C34.2135 5.43658 33.8238 5.21003 33.4071 5.21003C32.987 5.21003 32.594 5.43658 32.289 5.84911C31.9875 6.26163 31.7842 6.85337 31.7842 7.51274C31.7842 8.17549 31.9875 8.76385 32.289 9.17638C32.594 9.58891 32.987 9.81546 33.4071 9.81546C33.8238 9.81546 34.2135 9.58891 34.5184 9.17638C34.8233 8.76385 35.0266 8.17549 35.0266 7.51274C35.0266 6.85337 34.8233 6.26163 34.5184 5.84911ZM32.3297 7.82721V7.19489H33.0886V7.82721H32.3297ZM33.7222 7.82721V7.19489H34.4811V7.82721H33.7222Z" fill="#D1FD0A"/>
</svg>
