<svg xmlns="http://www.w3.org/2000/svg" width="15" height="15" viewBox="0 0 15 15" fill="none">
  <path d="M7.563 0C7.547 0 7.525 0 7.506 0.004C7.361 0.031 7.188 0.166 7.075 0.475C6.955 0.783 6.930 1.223 7.034 1.694C7.141 2.159 7.361 2.560 7.607 2.804C7.847 3.049 8.064 3.116 8.209 3.091C8.360 3.068 8.527 2.928 8.641 2.623C8.761 2.317 8.792 1.871 8.685 1.404C8.575 0.933 8.357 0.536 8.111 0.293C7.903 0.077 7.711 0 7.563 0Z" fill="#D1FD0A"/>
  <path d="M11.200 4.117C10.853 4.127 10.415 4.219 9.990 4.400C9.498 4.617 9.120 4.906 8.912 5.179C8.704 5.443 8.685 5.643 8.751 5.761C8.820 5.879 9.013 5.990 9.381 6.006C9.750 6.028 10.248 5.936 10.736 5.726C11.225 5.513 11.609 5.221 11.817 4.954C12.025 4.690 12.041 4.483 11.975 4.365C11.909 4.245 11.713 4.140 11.345 4.127C11.294 4.117 11.250 4.117 11.200 4.117Z" fill="#D1FD0A"/>
  <path d="M6.904 7.071C6.696 7.074 6.507 7.100 6.337 7.144C5.965 7.239 5.751 7.411 5.682 7.618C5.603 7.824 5.682 8.072 5.928 8.339C6.186 8.600 6.611 8.851 7.141 8.991C7.667 9.131 8.174 9.128 8.553 9.026C8.934 8.928 9.148 8.753 9.217 8.549C9.290 8.343 9.217 8.098 8.962 7.828C8.713 7.567 8.288 7.316 7.758 7.179C7.459 7.100 7.166 7.068 6.904 7.071Z" fill="#D1FD0A"/>
  <path d="M11.969 8.918L10.021 9.850C10.153 9.856 10.484 9.866 10.484 9.866L10.692 10.142L12.416 9.236L11.969 8.918Z" fill="#D1FD0A"/>
  <path d="M10.251 8.921L8.442 9.786C8.616 9.796 9.025 9.802 9.189 9.811L10.758 9.061L10.251 8.921Z" fill="#D1FD0A"/>
  <path d="M13.169 9.265L10.948 10.454L11.404 11.048L13.752 9.630L13.169 9.265Z" fill="#D1FD0A"/>
  <path d="M4.383 9.554C4.288 9.554 4.193 9.564 4.100 9.586C1.847 10.110 0.517 10.155 0.123 10.155H0V13.573C0 13.573 0.366 13.519 0.974 13.515C2.149 13.515 4.220 13.719 6.236 14.908C6.343 14.975 6.574 15 6.860 15C7.626 15 8.789 14.816 9.057 14.714C11.754 13.693 15 10.892 15 10.892L13.976 9.990C13.976 9.990 11.461 11.608 11.143 11.764C8.272 13.185 5.946 12.298 5.946 12.298C5.946 12.298 9.725 12.393 10.938 11.430L10.226 10.349C10.226 10.349 7.617 10.276 6.687 10.152C6.202 10.088 5.152 9.554 4.383 9.554Z" fill="#D1FD0A"/>
</svg>
