<svg xmlns="http://www.w3.org/2000/svg" width="15" height="15" viewBox="0 0 15 15" fill="none">
  <path d="M7.56303 0C7.54727 0 7.52521 2.67666e-08 7.5063 0.00381512C7.36135 0.0308387 7.18803 0.165957 7.07458 0.474661C6.95483 0.783048 6.92962 1.22274 7.03361 1.69358C7.14076 2.15871 7.36134 2.55961 7.60714 2.80441C7.84664 3.04921 8.06408 3.11598 8.20903 3.09054C8.36029 3.06829 8.52731 2.9284 8.64076 2.6232C8.7605 2.31672 8.79202 1.87099 8.68487 1.40396C8.57458 0.933427 8.35714 0.536339 8.11135 0.293126C7.90336 0.0769378 7.71113 0 7.56303 0ZM11.1996 4.11744C10.8529 4.12698 10.4149 4.21918 9.9895 4.40039C9.4979 4.61658 9.11975 4.90589 8.91177 5.17931C8.70378 5.44319 8.68487 5.64348 8.75105 5.76111C8.82038 5.87874 9.01261 5.99002 9.3813 6.00591C9.75 6.02817 10.2479 5.93597 10.7363 5.72614C11.2248 5.51313 11.6092 5.22064 11.8172 4.95358C12.0252 4.68971 12.041 4.48305 11.9748 4.36542C11.9086 4.24461 11.7132 4.1397 11.3445 4.12698C11.2941 4.11744 11.25 4.11744 11.1996 4.11744ZM6.90441 7.07096C6.69643 7.07414 6.50735 7.09957 6.33719 7.14408C5.96534 7.23946 5.75105 7.41114 5.68172 7.61779C5.60294 7.82444 5.68172 8.07242 5.92752 8.33948C6.18593 8.60018 6.61135 8.85134 7.14076 8.99123C7.66702 9.13111 8.17437 9.12793 8.55252 9.0262C8.93382 8.92764 9.14811 8.75278 9.21744 8.54931C9.28992 8.34266 9.21744 8.09786 8.96218 7.82762C8.71324 7.56692 8.28782 7.31576 7.7584 7.17905C7.45903 7.09957 7.16597 7.06778 6.90441 7.07096ZM11.9685 8.9181L10.021 9.84962C10.1534 9.85598 10.4842 9.86552 10.4842 9.86552L10.6922 10.1421L12.416 9.23603L11.9685 8.9181ZM10.2511 8.92128L8.44223 9.78604C8.61555 9.79557 9.02521 9.80193 9.18908 9.81147L10.7584 9.06117L10.2511 8.92128ZM13.1691 9.26464L10.9475 10.4537L11.4044 11.0482L13.7521 9.63025L13.1691 9.26464ZM4.3834 9.55395C4.28798 9.55377 4.19285 9.56444 4.09979 9.58574C1.84664 10.1103 0.516807 10.1548 0.122899 10.1548H0V13.5725C0 13.5725 0.365546 13.5185 0.97374 13.5153C2.14916 13.5153 4.21954 13.7188 6.23634 14.9078C6.34349 14.9746 6.57353 15 6.86029 15C7.62605 15 8.78887 14.8156 9.05672 14.7139C11.7542 13.6933 15 10.8924 15 10.8924L13.9758 9.98951C13.9758 9.98951 11.4611 11.6077 11.1429 11.7635C8.27206 13.1847 5.94643 12.2976 5.94643 12.2976C5.94643 12.2976 9.72479 12.393 10.938 11.4297L10.2258 10.3488C10.2258 10.3488 7.6166 10.2756 6.68698 10.1516C6.20168 10.0881 5.15231 9.55395 4.3834 9.55395Z" fill="#D1FD0A"/>
</svg>
